<svg xmlns="http://www.w3.org/2000/svg" width="256" height="256"><path fill-opacity=".075" d="M0 128.004v128.004l128.25-.254 128.25-.254.254-127.75L257.008 0H0v128.004m.485.496c0 70.4.119 99.053.265 63.672.146-35.38.146-92.98 0-128C.604 29.153.485 58.1.485 128.5" fill="#1976D2" fill-rule="evenodd"/><path fill-opacity=".597" d="M117.651.81c-.216.379-1.845 5.415-3.62 11.19-1.775 5.775-3.678 11.051-4.23 11.724-.551.672-2.644 1.528-4.651 1.901-7.005 1.302-17.511 5.393-27.708 10.79L67.17 41.852l-11.087-5.665-11.087-5.665-7.245 7.245-7.245 7.245 5.247 10.371C38.639 61.088 41 66.539 41 67.497c0 .958-1.535 4.275-3.41 7.372-4.122 6.806-9.901 20.718-11.548 27.8-.661 2.842-1.729 5.872-2.372 6.733-.644.86-6.12 3.049-12.17 4.863l-11 3.298-.284 10.165c-.331 11.827-1.462 10.552 13.081 14.751 5.706 1.647 10.159 3.505 10.664 4.448.477.891 1.62 4.534 2.541 8.096 2.092 8.094 6.335 18.157 11.048 26.197 4.375 7.466 4.282 8.251-2.416 20.28l-5.011 9 7.435 7.489 7.435 7.488 10.406-5.238C61.123 217.357 66.578 215 67.522 215c.944 0 4.25 1.535 7.347 3.41 6.806 4.122 20.718 9.901 27.8 11.548 2.842.661 5.872 1.729 6.733 2.372.86.644 3.049 6.12 4.865 12.17l3.3 11h20.845l3.571-11.5 3.57-11.5 5.974-1.822c11.2-3.417 21.964-7.804 28.811-11.744 3.761-2.164 7.711-3.934 8.779-3.934 1.067 0 6.385 2.416 11.818 5.368l9.877 5.368 7.311-7.36 7.312-7.361-5.408-10.961-5.409-10.961 6.175-12.297c3.396-6.763 7.23-16.028 8.521-20.59 1.29-4.562 3.027-8.976 3.861-9.809.833-.834 6.197-2.905 11.92-4.602 5.723-1.698 10.736-3.584 11.14-4.191.404-.607.741-5.416.75-10.687.011-6.996-.322-9.59-1.235-9.607-3.196-.058-22.378-6.505-23.388-7.859-.626-.84-1.891-4.524-2.811-8.187-2.038-8.115-6.283-18.263-11.015-26.338-1.945-3.318-3.536-6.759-3.536-7.645 0-.887 2.445-6.191 5.434-11.787l5.433-10.176-7.396-7.347-7.396-7.347-11.034 5.677-11.034 5.676-9.749-5.238c-5.363-2.882-15.138-7.039-21.724-9.239l-11.975-4-3.602-11.5L138.355.5 128.2.31c-5.586-.105-10.333.12-10.549.5M.37 128c0 5.775.165 8.137.367 5.25.202-2.887.202-7.612 0-10.5S.37 122.225.37 128" fill="#1976D2" fill-rule="evenodd"/><path fill-opacity=".316" d="M109 38.874c-33.399 7.298-59.463 31.915-69.028 65.193-2.754 9.583-3.71 28.046-2.002 38.683 3.021 18.824 11.231 35.158 24.53 48.807 18.144 18.622 39.789 27.717 66 27.733 18.777.012 34.719-4.842 50.437-15.355 39.35-26.322 51.825-76.437 29.57-118.79-11.215-21.341-33.472-39.002-57.007-45.235-11.508-3.048-31.107-3.526-42.5-1.036" fill="#1976D2" fill-rule="evenodd"/><path fill-opacity=".923" d="M129.718 133.956c-47.731 12.526-87.063 23.056-87.405 23.398-1.054 1.054 4.542 13.002 9.813 20.95 6.281 9.472 19.363 22.115 28.498 27.542 28.698 17.049 63.98 17.422 93.182.985 10.143-5.71 26.254-21.522 32.143-31.547C214.528 160.679 219 144.881 219 129.182c0-9.615-.899-18.237-1.886-18.092-.338.05-39.666 10.339-87.396 22.866" fill="#1976D2" fill-rule="evenodd"/></svg>